<svg width="7000" height="2100" viewBox="0 0 7000 2100" fill="none" xmlns="http://www.w3.org/2000/svg">
<path d="M6039 1264H5743L5688 1400H5486L5795 700H5990L6300 1400H6094L6039 1264ZM5981 1118L5891 894L5801 1118H5981Z" fill="black"/>
<path d="M5152 700H5314V1400H5152V700Z" fill="black"/>
<path d="M4666 700C4726.67 700 4779.33 710 4824 730C4869.33 750 4904 778.667 4928 816C4952 853.333 4964 897.667 4964 949C4964 999.667 4952 1044 4928 1082C4904 1119.33 4869.33 1148 4824 1168C4779.33 1188 4726.67 1198 4666 1198H4508V1400H4378V700H4666ZM4660 1088C4716.67 1088 4759.67 1076 4789 1052C4818.33 1028 4833 993.667 4833 949C4833 904.333 4818.33 870 4789 846C4759.67 822 4716.67 810 4660 810H4508V1088H4660Z" fill="black"/>
<path d="M3823 1408C3752.33 1408 3688.67 1392.67 3632 1362C3575.33 1330.67 3530.67 1287.67 3498 1233C3466 1178.33 3450 1117.33 3450 1050C3450 982.667 3466 921.667 3498 867C3530.67 812.333 3575.33 769.667 3632 739C3688.67 707.667 3752.33 692 3823 692C3893 692 3956.33 707.667 4013 739C4069.67 769.667 4114 812.333 4146 867C4178 921 4194 982 4194 1050C4194 1118 4178 1179.33 4146 1234C4114 1288 4069.67 1330.67 4013 1362C3956.33 1392.67 3893 1408 3823 1408ZM3823 1319C3874.33 1319 3920.33 1307.33 3961 1284C4002.33 1260.67 4034.67 1228.67 4058 1188C4082 1146.67 4094 1100.67 4094 1050C4094 999.333 4082 953.667 4058 913C4034.67 871.667 4002.33 839.333 3961 816C3920.33 792.667 3874.33 781 3823 781C3771.67 781 3725 792.667 3683 816C3641.67 839.333 3609 871.667 3585 913C3561.67 953.667 3550 999.333 3550 1050C3550 1100.67 3561.67 1146.67 3585 1188C3609 1228.67 3641.67 1260.67 3683 1284C3725 1307.33 3771.67 1319 3823 1319Z" fill="black"/>
<path d="M3052 764H2806V700H3372V764H3126V1400H3052V764Z" fill="black"/>
<path d="M2380 1405C2311.33 1405 2249.33 1389.67 2194 1359C2138.67 1327.67 2095 1285 2063 1231C2031.67 1177 2016 1116.67 2016 1050C2016 983.333 2031.67 923 2063 869C2095 815 2138.67 772.667 2194 742C2249.33 710.667 2311.33 695 2380 695C2448.67 695 2510.67 710.333 2566 741C2621.33 771.667 2664.67 814 2696 868C2728 922 2744 982.667 2744 1050C2744 1117.33 2728 1178 2696 1232C2664.67 1286 2621.33 1328.33 2566 1359C2510.67 1389.67 2448.67 1405 2380 1405ZM2380 1358C2438.67 1358 2491.67 1344.67 2539 1318C2586.33 1291.33 2623.67 1254.67 2651 1208C2678.33 1160.67 2692 1108 2692 1050C2692 992 2678.33 939.667 2651 893C2623.67 845.667 2586.33 808.667 2539 782C2491.67 755.333 2438.67 742 2380 742C2321.33 742 2268 755.333 2220 782C2172.67 808.667 2135.33 845.667 2108 893C2080.67 939.667 2067 992 2067 1050C2067 1108 2080.67 1160.67 2108 1208C2135.33 1254.67 2172.67 1291.33 2220 1318C2268 1344.67 2321.33 1358 2380 1358Z" fill="black"/>
<path d="M1864 1400L1691 1159C1668.33 1163 1643 1165 1615 1165H1406V1400H1372V700H1615C1702.33 700 1770.33 720.667 1819 762C1868.33 802.667 1893 859.333 1893 932C1893 988 1878.33 1035 1849 1073C1820.33 1110.33 1779 1136.33 1725 1151L1904 1400H1864ZM1617 1134C1695 1134 1755 1116.67 1797 1082C1839 1046.67 1860 996.667 1860 932C1860 868 1839 818.667 1797 784C1755 748.667 1695 731 1617 731H1406V1134H1617Z" fill="black"/>
<path d="M937 700C1023 700 1090.33 720.333 1139 761C1187.67 801 1212 857.333 1212 930C1212 1002.67 1187.67 1059.33 1139 1100C1090.33 1140 1023 1160 937 1160H720V1400H700V700H937ZM939 1141C1020.33 1141 1082.67 1122.67 1126 1086C1170 1049.33 1192 997.333 1192 930C1192 862.667 1170 810.667 1126 774C1082.67 737.333 1020.33 719 939 719H720V1141H939Z" fill="black"/>
</svg>
